PathFileType	4	(X/Y/Z)	c:/Users/goper/Files/vsCode/490R/osim_files/A03/A03_Static03.trc
DataRate	CameraRate	NumFrames	NumMarkers	Units                	OrigDataRate	OrigDataStartFrame	OrigNumFrames
250.00	250.00	10	36	mm	250.0	499	1993
                Frame#	Time	LPSIS			LASIS			LTH1			LTH2			LTH3			LTH4			LLFE			LMFE			LSH1			LSH2			LSH3			LSH4			LLMAL			LMMAL			LCAL			LMTP5			LTOE			LMTP1			RPSIS			RASIS			RTH1			RTH2			RTH3			RTH4			RLFE			RMFE			RSH1			RSH2			RSH3			RSH4			RLMAL			RMMAL			RCAL			RMTP1			RTOE			RMTP5		
		X1	Y1	Z1	X2	Y2	Z2	X3	Y3	Z3	X4	Y4	Z4	X5	Y5	Z5	X6	Y6	Z6	X7	Y7	Z7	X8	Y8	Z8	X9	Y9	Z9	X10	Y10	Z10	X11	Y11	Z11	X12	Y12	Z12	X13	Y13	Z13	X14	Y14	Z14	X15	Y15	Z15	X16	Y16	Z16	X17	Y17	Z17	X18	Y18	Z18	X19	Y19	Z19	X20	Y20	Z20	X21	Y21	Z21	X22	Y22	Z22	X23	Y23	Z23	X24	Y24	Z24	X25	Y25	Z25	X26	Y26	Z26	X27	Y27	Z27	X28	Y28	Z28	X29	Y29	Z29	X30	Y30	Z30	X31	Y31	Z31	X32	Y32	Z32	X33	Y33	Z33	X34	Y34	Z34	X35	Y35	Z35	X36	Y36	Z36

499	1.99200	-366.65506	1052.27869	432.08865	-118.83486	992.70020	317.05939	-175.57385	646.05945	244.90733	-163.63393	604.49274	241.96806	-113.98211	653.37689	260.57175	-113.28542	609.64893	256.68549	-164.91310	558.64215	247.61969	-139.53412	531.48486	400.46820	-219.18672	478.01147	242.48701	-222.52823	429.65616	239.26363	-157.65872	465.18463	242.96591	-172.08659	419.52075	243.62212	-261.71234	104.84226	236.95465	-244.67387	104.25713	329.59470	-329.69394	84.68291	294.21176	-117.07882	41.58069	208.00475	-80.74359	69.03735	274.73703	-107.31854	48.36541	321.95932	-370.27377	1058.92395	511.66940	-127.99561	989.75244	621.45355	-216.79347	629.88080	693.33777	-209.67114	585.63361	691.60413	-155.92578	633.48535	698.19824	-155.31834	589.15698	696.24109	-187.01537	547.25287	685.33276	-127.67295	540.60803	572.61658	-243.85535	486.31863	682.19751	-253.24449	447.87051	697.57562	-185.45930	472.19659	698.04144	-203.97368	430.82925	710.69141	-278.92706	129.69951	689.84131	-234.88492	128.97888	613.20868	-334.19012	86.52117	637.24225	-120.85543	48.46975	610.04895	-94.00813	71.06429	660.44031	-129.92569	41.02535	728.75494
500	1.99600	-366.56384	1052.27100	432.02261	-118.72676	992.70618	317.02805	-175.36449	646.08917	244.85852	-163.52754	604.48395	241.92719	-113.90919	653.35400	260.56610	-113.18227	609.60828	256.67172	-164.85121	558.64624	247.60225	-139.41441	531.50055	400.44717	-219.14169	478.01932	242.46394	-222.48164	429.66440	239.23541	-157.59671	465.15704	242.93872	-172.04570	419.50793	243.61737	-261.69504	104.85813	236.93495	-244.65601	104.25790	329.59305	-329.69327	84.69196	294.18362	-117.07008	41.58398	208.00038	-80.73881	69.06024	274.68393	-107.31074	48.34935	321.97708	-370.25275	1058.91077	511.55295	-127.94632	989.76727	621.42596	-216.75385	629.89496	693.32544	-209.60677	585.64514	691.59515	-155.90817	633.49420	698.16980	-155.24551	589.17914	696.22388	-186.89830	547.25989	685.29602	-127.61845	540.61261	572.62854	-243.78371	486.30975	682.18140	-253.18953	447.86975	697.57196	-185.41084	472.19489	698.03027	-203.89662	430.84332	710.70892	-278.88327	129.71506	689.81311	-234.87738	128.96021	613.20172	-334.16666	86.52177	637.23645	-120.83567	48.46492	610.03711	-93.99616	71.07095	660.45410	-129.91109	41.02727	728.78204
501	2.00000	-366.49713	1052.23511	431.91721	-118.63872	992.67780	317.02945	-175.30923	646.05621	244.85068	-163.45435	604.47998	241.93204	-113.81500	653.33337	260.56110	-113.09937	609.60223	256.66861	-164.77182	558.62396	247.61209	-139.35379	531.49066	400.42398	-219.29964	477.93018	242.54347	-222.43800	429.67178	239.25171	-157.51378	465.18076	242.95035	-171.98643	419.46762	243.61990	-261.70038	104.84270	236.95726	-244.62894	104.26469	329.58844	-329.68210	84.69378	294.18283	-117.08129	41.55639	207.99063	-80.69930	69.07370	274.67355	-107.29481	48.35802	321.95941	-370.24582	1058.89575	511.46716	-127.94570	989.78052	621.41467	-216.69952	629.89508	693.30664	-209.57187	585.64282	691.59766	-155.82941	633.51636	698.15216	-155.21974	589.19556	696.22174	-186.83455	547.28882	685.29022	-127.58743	540.59094	572.63660	-243.73669	486.31479	682.18018	-253.12820	447.87717	697.56708	-185.33644	472.21835	698.03912	-203.75314	430.87128	710.67383	-278.85989	129.72127	689.79755	-234.87511	128.96913	613.19269	-334.15143	86.53301	637.18787	-120.81055	48.47449	610.04047	-93.97464	71.06615	660.43652	-129.86417	41.03735	728.76862
502	2.00400	-366.42557	1052.23181	431.84042	-118.56438	992.67303	317.01218	-175.20609	646.03400	244.81953	-163.38116	604.47125	241.91696	-113.71981	653.31995	260.52710	-113.03925	609.57800	256.64679	-164.68253	558.63312	247.58681	-139.26460	531.48846	400.39038	-219.24364	477.93494	242.51883	-222.34576	429.64420	239.23148	-157.44983	465.16785	242.92523	-171.91289	419.48273	243.58788	-261.71063	104.84612	236.95772	-244.61636	104.26677	329.56088	-329.69708	84.71907	294.20810	-117.05585	41.57099	207.99579	-80.70867	69.04115	274.68646	-107.28004	48.34090	321.93958	-370.19370	1058.85864	511.37775	-127.92754	989.80481	621.39337	-216.68904	629.90894	693.28802	-209.55884	585.66736	691.57251	-155.80917	633.54797	698.13239	-155.19691	589.19849	696.18951	-186.85866	547.30133	685.29785	-127.55853	540.60846	572.63531	-243.73058	486.32925	682.15674	-253.11409	447.89017	697.54364	-185.29486	472.21936	698.02435	-203.86546	430.84308	710.66620	-278.86023	129.73907	689.80939	-234.84203	128.98340	613.16162	-334.12357	86.53755	637.20001	-120.77953	48.48679	610.03680	-93.97055	71.06041	660.41754	-129.85320	41.05581	728.72705
503	2.00800	-366.41040	1052.22900	431.74850	-118.47257	992.67657	316.97662	-175.13895	646.04071	244.79874	-163.29633	604.45142	241.89000	-113.63721	653.31854	260.51465	-112.96356	609.55640	256.61966	-164.61398	558.61987	247.53894	-139.19868	531.50250	400.36462	-219.17715	477.93787	242.48340	-222.30946	429.66287	239.21288	-157.41582	465.13666	242.89430	-171.86319	419.49365	243.56340	-261.67694	104.86353	236.91599	-244.62473	104.31470	329.57172	-329.67358	84.73087	294.16418	-117.05775	41.55743	207.98622	-80.69701	69.06287	274.65921	-107.23366	48.38757	321.93829	-370.17676	1058.88379	511.29483	-127.95055	989.83405	621.37860	-216.72252	629.95056	693.24902	-209.56499	585.68677	691.52393	-155.85492	633.56451	698.10596	-155.21301	589.21307	696.17200	-186.88612	547.30127	685.24908	-127.51575	540.63068	572.59674	-243.73709	486.34787	682.12421	-253.11859	447.91595	697.48871	-185.32155	472.23895	697.97992	-203.89346	430.86670	710.64807	-278.87076	129.76485	689.79102	-234.82922	128.99232	613.16266	-334.12592	86.54276	637.16760	-120.81143	48.48925	610.02441	-93.96343	71.10490	660.41968	-129.78409	41.10918	728.73700
504	2.01200	-366.38199	1052.21948	431.66556	-118.38041	992.64227	316.97665	-175.05635	646.02271	244.80023	-163.22722	604.45209	241.88231	-113.56304	653.31219	260.48816	-112.90343	609.55524	256.61560	-164.55115	558.60071	247.53981	-139.18015	531.49170	400.33350	-218.90024	478.01724	242.41101	-222.28247	429.67416	239.20715	-157.34187	465.14548	242.89420	-171.83522	419.46539	243.56787	-261.68356	104.85928	236.93613	-244.64890	104.33746	329.55521	-329.67896	84.74310	294.17230	-117.05025	41.57012	207.96912	-80.72514	69.09408	274.63568	-107.27074	48.39853	321.91119	-370.12848	1058.85815	511.19742	-127.95164	989.87433	621.38354	-216.79620	629.96283	693.20056	-209.63531	585.70642	691.48956	-155.92863	633.58148	698.08820	-155.24895	589.23541	696.15881	-186.95380	547.33313	685.23828	-127.51081	540.61249	572.61444	-243.78625	486.36746	682.07379	-253.17970	447.94006	697.43488	-185.37965	472.25436	697.96613	-203.92012	430.89291	710.61426	-279.00357	129.83842	689.81158	-234.85175	128.98726	613.15131	-334.17993	86.56258	637.16345	-120.81977	48.49561	609.99976	-93.98809	71.12244	660.39221	-129.80916	41.13243	728.72144
505	2.01600	-366.28259	1052.19360	431.57095	-118.32523	992.63690	316.95496	-174.98151	646.03339	244.76347	-163.15508	604.44086	241.84608	-113.49575	653.28748	260.45630	-112.82934	609.53754	256.58344	-164.49998	558.58539	247.51865	-139.13554	531.49438	400.31201	-218.85641	478.02313	242.38718	-222.23875	429.64856	239.17714	-157.26801	465.14331	242.85184	-171.76515	419.48785	243.53586	-261.66599	104.85027	236.93608	-244.68056	104.35675	329.52115	-329.68576	84.76722	294.14862	-117.05743	41.56302	207.98671	-80.71198	69.08509	274.66589	-107.28359	48.40296	321.89719	-370.11197	1058.83276	511.10034	-128.00594	989.89313	621.35522	-216.88251	629.97235	693.13696	-209.70612	585.72778	691.44189	-155.97437	633.61316	698.04608	-155.29640	589.22626	696.13452	-187.01530	547.34418	685.18073	-127.52459	540.62567	572.59821	-243.83954	486.37259	682.00964	-253.23808	447.96204	697.38910	-185.41319	472.25635	697.93799	-203.99263	430.90948	710.59100	-278.96210	129.79062	689.72870	-234.83502	128.97977	613.14142	-334.15887	86.53488	637.14056	-120.84495	48.52069	610.01056	-93.98629	71.14230	660.36511	-129.88834	41.13172	728.68585
506	2.02000	-366.24609	1052.21021	431.48334	-118.24464	992.61835	316.92657	-174.93762	646.01459	244.74046	-163.11275	604.43750	241.83330	-113.41836	653.29047	260.44797	-112.78223	609.53046	256.55957	-164.41550	558.58356	247.49245	-139.07173	531.49103	400.29855	-218.78952	478.00342	242.36545	-222.18922	429.64905	239.16777	-157.21973	465.14539	242.83522	-171.72563	419.47604	243.52620	-261.67056	104.86489	236.92851	-244.67755	104.37733	329.53568	-329.67526	84.76442	294.17322	-117.05283	41.58139	207.97479	-80.68400	69.11750	274.61453	-107.29662	48.41573	321.90860	-370.06052	1058.81262	511.01324	-128.02951	989.88477	621.34351	-216.91837	629.98425	693.08569	-209.75017	585.73602	691.40656	-156.03078	633.60767	698.02362	-155.32532	589.23456	696.10443	-187.05672	547.35455	685.17432	-127.53772	540.60284	572.57318	-243.86549	486.37207	681.99017	-253.26668	447.97266	697.33429	-185.44438	472.26849	697.91034	-203.99802	430.92383	710.59625	-278.96112	129.80453	689.71106	-234.84148	128.98396	613.14771	-334.19034	86.56509	637.12952	-120.84573	48.52336	609.99896	-94.00024	71.17035	660.37024	-129.83386	41.16950	728.70660
507	2.02400	-366.20319	1052.19531	431.41757	-118.17279	992.61743	316.93127	-174.88472	645.99390	244.74321	-163.05759	604.42480	241.83463	-113.35727	653.27325	260.42065	-112.72362	609.51666	256.54193	-164.34410	558.58038	247.49062	-138.99217	531.48853	400.27365	-218.74742	478.01898	242.36806	-222.13057	429.64005	239.16254	-157.17813	465.11804	242.84814	-171.66771	419.47031	243.50996	-261.88281	105.01802	236.73793	-244.65407	104.38591	329.51712	-329.67828	84.75887	294.17932	-117.05984	41.60456	207.96916	-80.70692	69.09933	274.62204	-107.25651	48.41336	321.88928	-370.03656	1058.80505	510.91409	-128.01311	989.88751	621.38464	-216.97917	629.96667	693.02722	-209.77985	585.71582	691.35114	-156.11423	633.57593	698.01324	-155.38110	589.20404	696.09967	-187.07870	547.35187	685.16589	-127.54878	540.60358	572.56897	-243.89464	486.34329	681.95551	-253.27948	447.95868	697.30609	-185.45312	472.26196	697.92371	-204.05104	430.91946	710.54639	-279.07483	129.83809	689.76416	-234.89067	128.97914	613.10278	-334.19336	86.54823	637.15442	-120.84174	48.53833	609.99817	-94.01460	71.18891	660.36426	-129.83939	41.13904	728.67725
508	2.02800	-366.18372	1052.18469	431.36948	-118.08691	992.61591	316.90662	-174.77930	646.03693	244.70529	-163.01172	604.41949	241.80156	-113.31594	653.25287	260.40067	-112.66031	609.50391	256.53094	-164.29736	558.57642	247.46436	-138.92998	531.48016	400.26959	-218.71249	478.01834	242.35197	-222.12108	429.62927	239.14857	-157.14177	465.10306	242.82124	-171.62616	419.44098	243.50264	-261.67026	104.86985	236.92467	-244.64684	104.37687	329.52612	-329.67209	84.76428	294.15417	-117.03785	41.59166	207.98631	-80.69816	69.10706	274.63629	-107.26749	48.42030	321.90192	-369.98856	1058.76611	510.85303	-128.00786	989.86841	621.37915	-217.01759	629.92719	692.97253	-209.83286	585.67798	691.30414	-156.14798	633.54333	697.99817	-155.44171	589.19220	696.08838	-187.14037	547.34296	685.13055	-127.56134	540.58710	572.54480	-243.90988	486.33652	681.89752	-253.32353	447.90228	697.25818	-185.49139	472.24487	697.89771	-204.07895	430.92783	710.54138	-279.08264	129.83173	689.77374	-234.88385	128.97009	613.11639	-334.19437	86.49715	637.12817	-120.84155	48.54238	610.01923	-94.02226	71.18962	660.37128	-129.87125	41.16740	728.69580
